<svg id="43d8c1cc-3f4c-4d11-9ada-3ebd0960f5be" data-name="Layer 1" xmlns="http://www.w3.org/2000/svg" viewBox="0 0 338 100"><defs><style>.\38 b0d5b33-bf93-4120-adb8-8d9020078eab{fill:#2b57a7;}.\38 137ee00-e414-4723-8998-3722e13f03a4{isolation:isolate;}</style></defs><title>Artboard 1</title><polygon class="8b0d5b33-bf93-4120-adb8-8d9020078eab" points="96.4 45.1 98.2 43.4 98.2 38.2 92.9 33 75.5 33 70.3 38.2 70.3 34.7 68.6 33 61.6 33 59.9 34.7 59.9 38.2 56.4 41.7 52.9 38.2 52.9 34.7 51.2 33 44.2 33 42.5 34.7 40.7 33 33.8 33 32 34.7 32 41.7 23.3 33 16.4 33 14.6 34.7 14.6 59.1 16.4 60.8 23.3 60.8 25.1 59.1 25.1 52.1 33.8 60.8 40.7 60.8 42.5 59.1 42.5 45.2 51.2 53.9 51.2 59.1 52.9 60.8 59.9 60.8 61.6 59.1 61.6 53.9 70.3 45.2 70.3 55.6 75.5 60.8 92.9 60.8 98.2 55.6 98.2 50.4 96.4 48.6 87.7 48.6 87.7 50.4 80.8 50.4 80.8 43.4 87.7 43.4 87.7 45.1 96.4 45.1"/><path class="8b0d5b33-bf93-4120-adb8-8d9020078eab" d="M97.2,33.7h.1c.1,0,.2,0,.2-.2s-.1-.2-.2-.2h-.1v.3Zm0,.6h-.2v-1h.8a.3.3,0,0,1,.1.2.3.3,0,0,1-.2.2h0c.1,0,.2.1.2.3v.3h-.3V34l-.2-.2h-.1v.4Zm-.6-.5a.8.8,0,0,0,.8.8.8.8,0,0,0,.8-.8.8.8,0,1,0-1.6,0Zm1.9,0a1.1,1.1,0,1,1-1.1-1,1,1,0,0,1,1.1,1Z"/><g class="8137ee00-e414-4723-8998-3722e13f03a4"><g class="8137ee00-e414-4723-8998-3722e13f03a4"><path class="8b0d5b33-bf93-4120-adb8-8d9020078eab" d="M118.6,32.6c8.7,0,13.5,6.3,13.5,14.3s-4.9,14.3-13.5,14.3S105,54.9,105,46.9,109.9,32.6,118.6,32.6Zm0,22.5c4.6,0,6.4-4.1,6.4-8.2s-1.8-8.2-6.4-8.2-6.4,4.1-6.4,8.2S114,55.1,118.6,55.1Z"/><path class="8b0d5b33-bf93-4120-adb8-8d9020078eab" d="M134.8,40.7h6.2V43h.1a6.4,6.4,0,0,1,5.5-2.9c6.3,0,8.9,5.4,8.9,11s-2.8,10.1-8.4,10.1a6.7,6.7,0,0,1-5.7-2.7h-.1v8.8h-6.5Zm6.3,9.8c0,3.5,1,5.8,4,5.8s3.9-3,3.9-5.8-1-5.3-3.9-5.3S141.1,46.4,141.1,50.5Z"/><path class="8b0d5b33-bf93-4120-adb8-8d9020078eab" d="M158,40.7h6.2V43h.1a6.4,6.4,0,0,1,5.5-2.9c6.3,0,8.9,5.4,8.9,11s-2.8,10.1-8.4,10.1a6.7,6.7,0,0,1-5.7-2.7h-.1v8.8H158Zm6.3,9.8c0,3.5,1,5.8,4,5.8s3.9-3,3.9-5.8-1-5.3-3.9-5.3S164.3,46.4,164.3,50.5Z"/><path class="8b0d5b33-bf93-4120-adb8-8d9020078eab" d="M190.6,40.1a10.2,10.2,0,0,1,10.5,10.6,10.5,10.5,0,1,1-21,0A10.2,10.2,0,0,1,190.6,40.1Zm0,16.1c3,0,4-3,4-5.5s-1-5.6-4-5.6-4,3-4,5.6S187.6,56.2,190.6,56.2Z"/><path class="8b0d5b33-bf93-4120-adb8-8d9020078eab" d="M203.6,40.7h6.3v3.5h.1a6,6,0,0,1,6-3.9l1.5.2v6a9.2,9.2,0,0,0-2.5-.4,4.6,4.6,0,0,0-4.9,4.7v9.9h-6.5Z"/><path class="8b0d5b33-bf93-4120-adb8-8d9020078eab" d="M231.7,44.9h-4V54c0,1.6.9,1.9,2.3,1.9h1.7v4.8l-3.6.2c-5.6,0-7-1.6-7-7V44.9h-3.3V40.7h3.3v-6h6.5v6h4Z"/><path class="8b0d5b33-bf93-4120-adb8-8d9020078eab" d="M253.4,60.7H247V57.9H247a7.4,7.4,0,0,1-6.1,3.3c-5.7,0-7.4-3.3-7.4-8.5v-12H240V52.3c0,2.7,1.2,3.6,3.2,3.6s3.6-.9,3.6-4.5V40.7h6.5Z"/><path class="8b0d5b33-bf93-4120-adb8-8d9020078eab" d="M256.7,40.7h6.3v2.7h.1a7.5,7.5,0,0,1,6.3-3.3c6.7,0,7.2,4.8,7.2,7.7V60.7h-6.5V51c0-2.7.3-5.5-3.3-5.5s-3.5,2.1-3.5,4.3V60.7h-6.5Z"/><path class="8b0d5b33-bf93-4120-adb8-8d9020078eab" d="M286.5,38.2H280v-5h6.5ZM280,40.7h6.5v20H280Z"/><path class="8b0d5b33-bf93-4120-adb8-8d9020078eab" d="M301.8,44.9h-4V54c0,1.6.9,1.9,2.3,1.9h1.7v4.8l-3.6.2c-5.6,0-7-1.6-7-7V44.9H288V40.7h3.3v-6h6.5v6h4Z"/><path class="8b0d5b33-bf93-4120-adb8-8d9020078eab" d="M315.5,62.4c-1.6,4.4-3.9,4.9-8.3,4.9h-3.1V62.1h2.3c1.5,0,2.6-.8,2.6-2.2s-1.3-4.2-1.7-5.2l-5.2-13.9h6.9l3.8,13h.1l3.8-13h6.7Z"/></g></g></svg>